<svg xmlns="http://www.w3.org/2000/svg" width="512" height="512" viewBox="0 0 2048 2048"><path fill="#010001" d="M1018 4h11l11 4 24 14 27 15 17 10 77 44 26 15 56 32 9 7 5 5 4 8 1 4 1 243 17 10 41 26 21 13 19 12 21 13 48 30 19 12 21 13-1-2v-55l2-9 3-6 5-6 18-11 42-24 26-15 56-32 24-14 25-14 24-14 23-13 7-3h15l10 5 7 8 3 7 1 8-2 9-2 5 6 2 26 15 21 12 2-4 7-6 10-4h9l12 5 27 15 10 8 4 6 2 5 1 8-2 10-2 4 5 2 43 24 16-8 6-2h12l10 4 8 8 4 9 1 11-1 235-4 10-5 6-15 9-30 16-23 13-30 16-23 13-21 11-23 13-32 17-18 10-7 4h-2v319l1 3 22 12 17 10 112 64 26 15 28 16 16 10 7 7 4 9 1 20-1 227-4 9-6 7-14 8-24 13-29 16-48 26-23 13-30 16-23 13-21 11-22 12-8 4-5 1h-10l-10-4-21-11-23-13-32-17-44-24-29-16-24-13-21-12-5 1-11 7-129 86-44 29-43 29-20 13-7 5-1 119-3 10-6 8-11 7-26 14-29 16-26 14-23 13-30 16-22 12-29 16-24 13-16 9-11 5h-12l-16-8-28-15-22-12-29-16-28-15-23-13-30-16-23-13-21-11-23-13-7-6-4-6-2-8-1-120-162-108-44-29-43-29-6-4-5 1-30 16-22 12-24 13-18 10-22 12-23 13-34 18-18 10-9 4-4 1h-11l-12-5-24-13-18-10-24-13-68-37-23-13-28-15-29-16-18-10-7-7-4-8-1-4v-9l4-10 7-8 8-4 9-2v-91l-9-1-10-6-7-10-2-8v-93l4-11 4-5 10-7 19-11 26-15 105-60 26-15 25-14 14-8V856l-23-13-26-14-23-13-21-11-22-12-29-16-26-14-18-10-24-13-13-9-6-9-2-8V474l4-11 6-7 14-9 25-14 24-14 56-32 26-15 25-14 17-10 21-12 26-15 11-5 10-1 12 4 25 14 24 14 23 13 24 14 25 14 24 14 84 48 9 7 6 7 3 7v63l23-14 22-14 24-15 38-24 24-15 19-12 47-29 10-7 1-244 3-8 7-8 11-7 28-16 26-15 112-64 24-14 18-10 21-12zM807 442l-23 14-22 14-24 15-19 12-24 15-21 13-38 24-72 45-9 6-1 1-1 117 9 7 24 15 24 16 17 11 43 28 23 15 25 16 15 10 17 11 23 15 15 10 4 1 23-13 24-14 23-13 24-14 27-15 17-10 28-16 23-13 14-8 1-2V545l-5-4-26-14-23-13-34-18-18-10-26-14-18-10-22-12-14-8zm431 0-26 14-22 12-29 16-26 14-23 13-32 17-18 10-10 6v212l24 14 25 14 24 14 25 14 24 14 23 13 21 12 26 15 12 7 5-2 25-16 27-18 16-10 15-10 123-80 17-11 9-6 1-1V601l-10-7-24-15-21-13-19-12-72-45-19-12-24-15-21-13-19-12-21-13-3-2zM504 755l-26 14-23 13-23 12-23 13-19 10-23 13-21 11-22 12-4 3v320l5 4 11 6 25 14 24 14 25 14 24 14 25 14 24 14 23 13 15 9 4 1 15-11 16-11 14-10 23-16 18-13 16-11 20-14 17-12 18-13 16-11 17-12 40-28 6-4 1-2V921l-27-18-16-10-46-30-26-17-17-11-43-28-43-28-23-15-14-9zm1037 0-16 10-15 10-60 39-17 11-49 32-54 35-26 17-17 11-1 1v205l11 8 16 11 34 24 20 14 68 48 20 14 34 24 20 14 13 9 3 1 26-15 23-13 24-14 25-14 24-14 25-14 17-10 25-14 13-8 1-320-5-4-22-12-29-16-26-14-23-13-19-10-23-13-32-17-5-3zm-750 418-17 12-18 13-16 11-34 24-20 14-17 12-14 10-40 28-17 12-20 14-17 12-6 4-1 7-1 224 10 7 26 17 54 36 43 29 19 12 43 29 12 8h2l1-56 4-9 4-5 14-9 25-14 17-10 49-28 26-15 56-32 23-13 15-9v-223l-9-6-48-26-18-10-26-14-23-13-30-16-23-13-23-12zm464 0-26 14-18 10-26 14-44 24-29 16-26 14-23 13-11 6v224l24 14 28 16 24 14 25 14 24 14 25 14 26 15 28 16 15 9 10 9 3 7 1 5 1 53 8-4 43-29 44-29 43-29 38-25 21-14 11-7v-230l-7-6-20-14-17-12-19-13-15-11-19-13-18-13-20-14-17-12-20-14-34-24-20-14-11-8z"/><path fill="#04D7FC" d="m1779 358 5 1 49 28 2-4 7-6 10-4h9l12 5 27 15 10 8 4 6 2 5 1 8-2 10-2 4 5 2 43 24v2l-26 14-23 13-30 16-18 10-22 12-48 26-36 20-6-1-26-14-44-24-23-13-12-6-45-25-21-11-2-3 18-10 26-15 56-32 26-15 28-16 23-13 16-10 6-5zM1021 1557h6l24 14 25 14 24 14 27 15 24 14 26 15 23 13v3l-23 12-18 10-29 16-26 14-27 15-28 15-18 10-6 3-6-2-26-14-18-10-26-14-23-13-19-10-18-10-14-8-14-7-13-7v-3l8-4 42-24 26-15 23-13 24-14 23-13 24-14zM1754 1225l5 1 25 14 24 14 25 14 24 14 25 14 15 9 35 20v2l-24 13-23 13-52 28-16 9-48 26-14 7-24-13-23-13-21-11-23-13-21-11-16-9-28-15-20-11 1-3 14-7 24-14 25-14 19-11 21-12 24-14 25-14zM1021 805h6l140 80 24 14 9 5v3l-23 12-23 13-26 14-22 12-24 13-29 16-28 15-6-2-12-7-12-6-18-10-14-8-12-6-18-10-14-8-12-6-18-10-24-13-17-9v-3l24-13 24-14 23-13 24-14 25-14 17-10 28-16zM1023 64l6 2 25 14 24 14 23 13 26 15 28 16 26 15 19 11-1 3-26 14-18 10-22 12-29 16-26 14-23 13-23 12-8 4-16-8-16-9-24-13-22-12-19-11-12-6-23-13-23-12-14-8-6-3-1-3 27-15 19-11 26-15 23-13 24-14 25-14 24-14zM290 1225l6 1 16 9 24 14 28 16 16 9 24 14 25 14 24 14 15 9-1 3-22 12-18 10-46 25-29 16-26 14-22 12-10 6-6-2-24-13-22-12-19-11-14-7-23-13-19-10-18-10-26-14-7-4 1-3 10-5 24-14 20-11 24-14 25-14 24-14 23-13 22-13zM291 376l5 1 27 15 24 14 25 14 24 14 23 13 17 10 28 16 4 3-1 3-19 10-23 13-28 15-22 12-29 16-28 15-18 10-5 3-7-1-23-13-18-10-11-6-32-17-23-13-28-15-22-12-15-8v-2l23-13 24-14 25-14 24-14 25-14 24-14 25-14z"/><path fill="#FD6EA5" d="m86 1375 6 2 23 12 23 13 30 16 23 13 32 17 39 22 2 2v168l-4-1-28-15-23-13-21-11-23-13-23-12-23-13-28-15-18-10-14-5-1-1v-89l10-3 9-6 6-8 2-6z"/><path fill="#244AAF" d="M1228 954h2v168l-3 3-25 14-28 15-23 13-23 12-18 10-24 13-23 13-8 5h-3v-169l8-5 22-12 23-13 19-10 22-12 29-16 28-15 22-12z"/><path fill="#FD6EA5" d="m818 954 16 8 34 18 23 13 30 16 10 6 12 6 23 13 22 12 7 4 1 2v168l-6-2-14-8-24-13-23-13-23-12-23-13-28-15-23-13-11-6-3-3z"/><path fill="#244AAF" d="M1228 1706h2v169l-15 9-30 16-22 12-29 16-26 14-23 13-21 11-9 6h-3v-169l8-5 26-14 45-25 28-15 18-10 28-15 18-10z"/><path fill="#FD6EA5" d="m818 1706 16 8 34 18 16 9 26 14 18 10 24 13 23 13 20 11 1 2v168l-5-2-28-15-24-13-18-10-24-13-29-16-24-13-23-13-3-3zM818 214l5 2 23 12 110 60 19 11 11 6 9 5 1 2v168l-5-2-24-13-23-13-21-11-18-10-24-13-23-13-30-16-10-7z"/><path fill="#244AAF" d="M1228 214h2v168l-5 4-29 16-26 14-29 16-26 14-22 12-26 14-14 8-1-1V311l1-2 16-8 27-15 28-15 18-10 46-25 24-13zM497 525l2 1v167l-4 4-30 16-18 10-26 14-18 10-26 14-18 10-26 14-10 6-3-1V624l1-3 23-12 18-10 29-16 28-15 18-10 26-14 22-12zM497 1375h1l1 167-6 5-27 15-30 16-23 13-28 15-44 24-19 11h-1l-1-6 1-164 43-24 24-13 23-13 25-13 18-10 26-14 14-8z"/><path fill="#FD6EA5" d="m86 526 5 1 22 12 14 8 14 7 23 13 32 17 23 13 30 16 15 9v169l-4-1-18-10-24-13-88-48-29-16-13-8-2-4zM1550 526l6 2 26 14 22 12 23 13 12 6 22 12 10 6 12 6 23 13 20 11 1 1 1 169-5-1-16-9-26-14-18-10-48-26-23-13-28-15-13-8-1-1zM1550 1375l7 3 23 12 23 13 28 15 46 25 29 16 21 12 1 169-5-1-24-13-23-13-23-12-18-10-26-14-23-13-19-10-15-9-2-2z"/><path fill="#244AAF" d="M1959 1375h2l1 164-2 6-22 12-24 13-29 16-24 13-23 13-25 13-18 10-8 5h-3v-169l10-6 12-6 16-9 29-16 48-26 18-10 28-15zM1960 525h1l1 168-8 6-18 10-26 14-22 12-27 15-28 15-18 10-26 14-5 2V622l16-9 25-14 26-14 88-48z"/><path fill="#010001" d="M1852 373h9l12 5 27 15 10 8 4 6 2 5 1 8-2 10-5 8-7 6-8 3h-12l-12-5-24-14-11-8-5-7-2-7v-10l4-11 7-7z"/></svg>